<svg width="213" height="223" viewBox="0 0 213 223" fill="none" xmlns="http://www.w3.org/2000/svg">
<path d="M15.7337 213.059V219.999L14.63 221.238C14.2398 221.676 14.2803 222.345 14.7203 222.733C15.1603 223.121 15.8333 223.081 16.2233 222.643L16.833 221.959L17.5322 222.678C17.9413 223.098 18.6154 223.109 19.0379 222.701C19.2535 222.494 19.3619 222.217 19.3619 221.94C19.3619 221.675 19.2622 221.409 19.0618 221.203L17.8631 219.972V213.059C17.8631 212.474 17.3863 212 16.7984 212C16.2103 212 15.7337 212.474 15.7337 213.059Z" fill="#F58C91"/>
<path fill-rule="evenodd" clip-rule="evenodd" d="M17.8619 30C26.1461 30 32.8619 23.2843 32.8619 15C32.8619 6.71573 26.1461 0 17.8619 0C9.57761 0 2.86188 6.71573 2.86188 15C2.86188 23.2843 9.57761 30 17.8619 30Z" fill="#D3DAFF" fill-opacity="0.37"/>
<path fill-rule="evenodd" clip-rule="evenodd" d="M197.862 30C206.146 30 212.862 23.2843 212.862 15C212.862 6.71573 206.146 0 197.862 0C189.578 0 182.862 6.71573 182.862 15C182.862 23.2843 189.578 30 197.862 30Z" fill="#D3DAFF" fill-opacity="0.37"/>
<path fill-rule="evenodd" clip-rule="evenodd" d="M108.362 23C112.504 23 115.862 19.6421 115.862 15.5C115.862 11.3579 112.504 8 108.362 8C104.22 8 100.862 11.3579 100.862 15.5C100.862 19.6421 104.22 23 108.362 23Z" fill="#D3DAFF" fill-opacity="0.37"/>
<path fill-rule="evenodd" clip-rule="evenodd" d="M17.8619 120C26.1461 120 32.8619 113.284 32.8619 105C32.8619 96.7157 26.1461 90 17.8619 90C9.57761 90 2.86188 96.7157 2.86188 105C2.86188 113.284 9.57761 120 17.8619 120Z" fill="#D3DAFF" fill-opacity="0.37"/>
<path fill-rule="evenodd" clip-rule="evenodd" d="M198.362 113C202.504 113 205.862 109.642 205.862 105.5C205.862 101.358 202.504 98 198.362 98C194.22 98 190.862 101.358 190.862 105.5C190.862 109.642 194.22 113 198.362 113Z" fill="#D3DAFF" fill-opacity="0.37"/>
<path fill-rule="evenodd" clip-rule="evenodd" d="M107.862 120C116.146 120 122.862 113.284 122.862 105C122.862 96.7157 116.146 90 107.862 90C99.5776 90 92.8619 96.7157 92.8619 105C92.8619 113.284 99.5776 120 107.862 120Z" fill="#D3DAFF" fill-opacity="0.37"/>
<path fill-rule="evenodd" clip-rule="evenodd" d="M17.8619 211C26.1461 211 32.8619 204.284 32.8619 196C32.8619 187.716 26.1461 181 17.8619 181C9.57761 181 2.86188 187.716 2.86188 196C2.86188 204.284 9.57761 211 17.8619 211Z" fill="#D3DAFF" fill-opacity="0.37"/>
<path fill-rule="evenodd" clip-rule="evenodd" d="M108.362 203C112.504 203 115.862 199.642 115.862 195.5C115.862 191.358 112.504 188 108.362 188C104.22 188 100.862 191.358 100.862 195.5C100.862 199.642 104.22 203 108.362 203Z" fill="#D3DAFF" fill-opacity="0.37"/>
<path fill-rule="evenodd" clip-rule="evenodd" d="M197.362 203C201.504 203 204.862 199.642 204.862 195.5C204.862 191.358 201.504 188 197.362 188C193.22 188 189.862 191.358 189.862 195.5C189.862 199.642 193.22 203 197.362 203Z" fill="#D3DAFF" fill-opacity="0.37"/>
<path d="M198.362 15.5L108.362 105L17.8619 15.5V105.5V195.5" stroke="#FF955C" stroke-width="10" stroke-linecap="round" stroke-linejoin="round"/>
<path d="M15.8458 215.289C16.1974 215.34 16.5537 215.364 16.9115 215.359C17.4955 215.356 18.8965 214.958 19.3875 214.639C19.8785 214.32 20.5617 213.541 20.8474 213.074C21.6582 211.742 22.6455 208.783 23.3529 207.395C23.575 206.966 24.1955 206.199 24.3256 205.739C24.4557 205.28 24.2566 203.884 24.3493 203.269C24.4699 202.424 26.8053 197.307 26.0211 193.755C25.7225 192.359 24.4098 190.052 22.8407 190.052C22.7516 189.481 12.9791 189.634 12.6457 190.052C12.3123 190.469 9.37155 190.469 8.81951 193.755C8.25119 197.137 10.2545 203.281 10.2711 204.268C10.2847 204.709 9.90817 205.586 9.97836 206.007C10.0486 206.429 10.7456 207.332 10.957 207.797C11.4707 208.936 12.1886 211.347 12.6457 212.506C12.8605 213.038 13.3579 214.122 13.8033 214.48C14.2487 214.838 15.2548 215.156 15.8458 215.289Z" fill="#FF955C"/>
<path fill-rule="evenodd" clip-rule="evenodd" d="M22.3619 206C23.1903 206 23.8619 205.328 23.8619 204.5C23.8619 203.672 23.1903 203 22.3619 203C21.5335 203 20.8619 203.672 20.8619 204.5C20.8619 205.328 21.5335 206 22.3619 206Z" fill="#2C3773"/>
<path fill-rule="evenodd" clip-rule="evenodd" d="M12.3619 206C13.1903 206 13.8619 205.328 13.8619 204.5C13.8619 203.672 13.1903 203 12.3619 203C11.5335 203 10.8619 203.672 10.8619 204.5C10.8619 205.328 11.5335 206 12.3619 206Z" fill="#2C3773"/>
</svg>
