<svg width="233" height="211" viewBox="0 0 233 211" fill="none" xmlns="http://www.w3.org/2000/svg">
<path fill-rule="evenodd" clip-rule="evenodd" d="M15.8619 30C24.1461 30 30.8619 23.2843 30.8619 15C30.8619 6.71573 24.1461 0 15.8619 0C7.57761 0 0.861877 6.71573 0.861877 15C0.861877 23.2843 7.57761 30 15.8619 30Z" fill="#D3DAFF" fill-opacity="0.37"/>
<path fill-rule="evenodd" clip-rule="evenodd" d="M106.362 23C110.504 23 113.862 19.6421 113.862 15.5C113.862 11.3579 110.504 8 106.362 8C102.22 8 98.8619 11.3579 98.8619 15.5C98.8619 19.6421 102.22 23 106.362 23Z" fill="#D3DAFF" fill-opacity="0.37"/>
<path fill-rule="evenodd" clip-rule="evenodd" d="M196.5 23C200.642 23 204 19.6421 204 15.5C204 11.3579 200.642 8 196.5 8C192.358 8 189 11.3579 189 15.5C189 19.6421 192.358 23 196.5 23Z" fill="#D3DAFF" fill-opacity="0.37"/>
<path fill-rule="evenodd" clip-rule="evenodd" d="M15.8619 120C24.1461 120 30.8619 113.284 30.8619 105C30.8619 96.7157 24.1461 90 15.8619 90C7.57761 90 0.861877 96.7157 0.861877 105C0.861877 113.284 7.57761 120 15.8619 120Z" fill="#D3DAFF" fill-opacity="0.37"/>
<path fill-rule="evenodd" clip-rule="evenodd" d="M196.5 113C200.642 113 204 109.642 204 105.5C204 101.358 200.642 98 196.5 98C192.358 98 189 101.358 189 105.5C189 109.642 192.358 113 196.5 113Z" fill="#D3DAFF" fill-opacity="0.37"/>
<path fill-rule="evenodd" clip-rule="evenodd" d="M105.862 120C114.146 120 120.862 113.284 120.862 105C120.862 96.7157 114.146 90 105.862 90C97.5776 90 90.8619 96.7157 90.8619 105C90.8619 113.284 97.5776 120 105.862 120Z" fill="#D3DAFF" fill-opacity="0.37"/>
<path fill-rule="evenodd" clip-rule="evenodd" d="M15.8619 211C24.1461 211 30.8619 204.284 30.8619 196C30.8619 187.716 24.1461 181 15.8619 181C7.57761 181 0.861877 187.716 0.861877 196C0.861877 204.284 7.57761 211 15.8619 211Z" fill="#D3DAFF" fill-opacity="0.37"/>
<path fill-rule="evenodd" clip-rule="evenodd" d="M106.362 203C110.504 203 113.862 199.642 113.862 195.5C113.862 191.358 110.504 188 106.362 188C102.22 188 98.8619 191.358 98.8619 195.5C98.8619 199.642 102.22 203 106.362 203Z" fill="#D3DAFF" fill-opacity="0.37"/>
<path fill-rule="evenodd" clip-rule="evenodd" d="M195.428 208C203.712 208 210.428 201.284 210.428 193C210.428 184.716 203.712 178 195.428 178C187.144 178 180.428 184.716 180.428 193C180.428 201.284 187.144 208 195.428 208Z" fill="#D3DAFF" fill-opacity="0.37"/>
<path d="M225.495 191.508H172.937C156.555 191.508 143.276 185.901 143.276 169.51V122.318C143.276 110.891 134.365 101.417 122.963 100.804C117.945 100.534 112.379 100.915 106.376 100.767C105.958 100.757 105.549 100.757 105.14 100.757C93.3851 100.906 84.0555 110.77 84.0555 122.531V122.941C84.0555 139.332 83.2936 194.185 62.6365 194.185H25.5784C24.8071 194.185 15.6448 194.752 14.9944 194.325C4.15011 187.11 8.54542 149.168 7.69052 101.324V24.1761C7.69052 17.7331 12.9036 12.5174 19.3432 12.5174H53.9295" stroke="#F3925F" stroke-width="14" stroke-miterlimit="10" stroke-linecap="round" stroke-linejoin="round"/>
<path d="M46.4398 6.0093C46.5792 6.0093 53.3069 6 53.4556 6C53.6136 6 53.7716 6.0093 53.9295 6.01859C54.5986 6.03719 55.2398 6.14876 55.8438 6.35329C58.8638 7.25513 61.1683 9.81186 61.7073 12.9729H62.6551C65.3592 12.9729 67.5429 15.1671 67.5429 17.8726C67.5429 20.578 65.3499 22.7722 62.6551 22.7722H53.1025V22.7629C50.3148 22.642 47.8709 21.1638 46.4398 18.9696" fill="#F3925F"/>
<path d="M50.3984 11.2901C50.3984 12.2663 51.1883 13.0659 52.1733 13.0659C53.149 13.0659 53.9481 12.2663 53.9481 11.2901C53.9481 10.3139 53.149 9.51435 52.1733 9.51435C51.1883 9.51435 50.3984 10.3046 50.3984 11.2901Z" fill="white"/>
<path d="M57.2934 13.0659C58.2736 13.0659 59.0682 12.2709 59.0682 11.2901C59.0682 10.3094 58.2736 9.51435 57.2934 9.51435C56.3132 9.51435 55.5185 10.3094 55.5185 11.2901C55.5185 12.2709 56.3132 13.0659 57.2934 13.0659Z" fill="white"/>
<path d="M52.2941 11.2901C52.2941 11.7457 52.6658 12.1176 53.1211 12.1176C53.5764 12.1176 53.9481 11.7457 53.9481 11.2901C53.9481 10.8346 53.5764 10.4627 53.1211 10.4627C52.6658 10.4627 52.2941 10.8253 52.2941 11.2901Z" fill="#29235C"/>
<path d="M58.4549 18.4304C59.4678 19.6018 59.9603 19.6018 64.0118 19.6018C66.4185 19.6018 65.2198 19.6018 69.2992 19.6018" stroke="#F9B233" stroke-width="1.2586" stroke-miterlimit="10" stroke-linecap="round"/>
<path d="M71.1298 17.7703L69.3364 19.5647C69.3178 19.5832 69.3178 19.6204 69.3364 19.639L71.1298 21.4334" stroke="#F9B233" stroke-width="1.2586" stroke-miterlimit="10" stroke-linecap="round" stroke-linejoin="round"/>
<path d="M63.891 14.9346C63.891 15.2507 64.1512 15.5111 64.4671 15.5111C64.7831 15.5111 65.0433 15.2507 65.0433 14.9346C65.0433 14.6185 64.7831 14.3582 64.4671 14.3582C64.1512 14.3582 63.891 14.6185 63.891 14.9346Z" fill="#2B2523"/>
<path d="M61.4843 14.9346C61.4843 15.2507 61.7444 15.5111 62.0604 15.5111C62.3763 15.5111 62.6365 15.2507 62.6365 14.9346C62.6365 14.6185 62.3763 14.3582 62.0604 14.3582C61.7444 14.3582 61.4843 14.6185 61.4843 14.9346Z" fill="#2B2523"/>
<path d="M57.4142 11.2901C57.4142 11.7457 57.7859 12.1176 58.2412 12.1176C58.6965 12.1176 59.0682 11.7457 59.0682 11.2901C59.0682 10.8346 58.6965 10.4627 58.2412 10.4627C57.7766 10.4627 57.4142 10.8253 57.4142 11.2901Z" fill="#29235C"/>
</svg>
