<?xml version="1.0" encoding="utf-8"?>
<!-- Generator: Adobe Illustrator 23.0.1, SVG Export Plug-In . SVG Version: 6.00 Build 0)  -->
<svg version="1.1" id="Capa_1" xmlns="http://www.w3.org/2000/svg" xmlns:xlink="http://www.w3.org/1999/xlink" x="0px" y="0px"
	 viewBox="0 0 150 150" style="enable-background:new 0 0 150 150;" xml:space="preserve">
<style type="text/css">
	.st0{enable-background:new    ;}
</style>
<g class="st0">
	<path d="M101.1,51.7H84.9V36.9c0-2.1-0.4-3.5-1.1-4.2c-0.7-0.7-2.1-1-4.3-1h-9.1c-2.1,0-3.6,0.3-4.3,1c-0.7,0.7-1.1,2.1-1.1,4.2
		v76.2c0,2.1,0.4,3.5,1.1,4.2c0.7,0.7,2.1,1,4.3,1h9.1c2.1,0,3.6-0.3,4.3-1c0.7-0.7,1.1-2.1,1.1-4.2V85.8H76V73.3h25.2v41.8
		c0,10.6-5.5,15.9-16.6,15.9H65.5c-11.1,0-16.6-5.3-16.6-15.9V34.8c0-10.5,5.5-15.7,16.6-15.7h19.1c11.1,0,16.6,5.2,16.6,15.7V51.7z
		"/>
</g>
</svg>
