<?xml version="1.0" encoding="UTF-8"?>
<svg width="165px" height="66px" viewBox="0 0 165 66" version="1.1" xmlns="http://www.w3.org/2000/svg" xmlns:xlink="http://www.w3.org/1999/xlink">
    <!-- Generator: Sketch 59.1 (86144) - https://sketch.com -->
    <title>Group 25</title>
    <desc>Created with Sketch.</desc>
    <g id="Symbols" stroke="none" stroke-width="1" fill="none" fill-rule="evenodd">
        <g id="logoApp">
            <g id="Group-25">
                <path d="M4.44550134,38.0313711 C8.57027131,35.7919787 13.729435,37.3202 15.9687476,41.4451169 C18.2080601,45.5703462 16.679581,50.7296937 12.5544987,52.9687737 C8.42972869,55.208166 3.27056497,53.6793201 1.03125243,49.5544031 C-1.20806011,45.4297986 0.320419048,40.2707634 4.44550134,38.0313711 Z M46.4454428,13.0313621 C50.5702168,10.7919685 55.7290732,12.3201907 57.9683879,16.4454222 C60.2083273,20.5703415 58.6795343,25.7296919 54.5547603,27.9687731 C50.429674,30.2081667 45.2705053,28.6793199 43.0311906,24.5544007 C40.7918759,20.4297938 42.3206688,15.2707557 46.4454428,13.0313621 Z M29.9659286,0.110592727 C34.7963571,0.110592727 38.712,3.87655636 38.712,8.52126545 C38.712,13.1662836 34.7963571,16.9316291 29.9659286,16.9316291 C25.1358214,16.9316291 21.2201786,13.1662836 21.2201786,8.52126545 C21.2201786,3.87655636 25.1358214,0.110592727 29.9659286,0.110592727 Z" id="Combined-Shape" fill="#3FCFDC"></path>
                <path d="M35.0344115,39.1333579 C35.5882148,38.5927263 36.1694279,38.0798842 36.5743459,37.3722 C38.9256738,33.2688316 37.5498869,28.0099895 33.5028869,25.6264105 C31.4782967,24.4343053 29.169018,24.1876737 27.0721656,24.7513579 L27.0734115,24.7497789 L26.5006082,24.9007263 C21.075641,26.1809368 18.1854607,24.3114632 16.6978541,18.6237789 L16.6969197,18.6256737 C16.1412475,16.4991474 14.7857066,14.5879895 12.7614279,13.3965158 C8.71380492,11.0126211 3.52680492,12.4068316 1.17578852,16.5105158 C-1.17491639,20.6142 0.199936066,25.8730421 4.24787049,28.2563053 C5.04867377,28.7284105 5.91177213,28.9403053 6.77144426,29.1244105 C7.46198525,29.2557789 8.17962459,29.3505158 8.8863623,29.3066211 C9.3993623,29.2832526 9.89741148,29.2671474 10.3957721,29.1509368 L10.9642148,29.0012526 C16.4106738,27.7172526 19.5640508,29.5690421 21.0522803,35.2589368 L21.0538377,35.2567263 C21.4428705,36.7472526 22.3523787,38.0274632 23.4836574,39.1333579 C27.7381,43.4467263 27.5057393,47.0192526 23.2525426,51.3319895 C21.7191492,52.8866211 20.7707066,55.0346211 20.7707066,57.4074632 C20.7707066,62.1531474 24.5651,66.0000947 29.245641,66.0000947 C33.9264934,66.0000947 37.7208869,62.1531474 37.7208869,57.4074632 C37.7208869,55.0346211 36.7724443,52.8866211 35.2390508,51.3319895 C30.9855426,47.0192526 30.7802803,43.4467263 35.0344115,39.1333579" id="Fill-8" fill="#051C48"></path>
                <path d="M50.7882079,37 C54.1948638,37 56.3737022,39.053901 57,42.8399454 L54.2199679,43.1369027 C53.8942669,41.7761169 53.6686563,41.2070024 53.1926569,40.5634876 C52.6667753,39.8458944 51.7649847,39.4007806 50.8129859,39.4007806 C48.5337313,39.4007806 47.2563575,41.578038 47.2563575,45.4136827 C47.2563575,49.2738055 48.6090435,51.5006631 50.9134022,51.5006631 C52.6416713,51.5006631 53.9692531,50.090277 54.2199679,48.0115759 L57,48.3333333 C56.7245072,50.114755 56.3489241,51.0056269 55.3721473,52.0697776 C54.1694337,53.3812853 52.6918794,54 50.6881176,54 C48.6589256,54 47.1311632,53.3320071 46.029192,51.946099 C44.7016101,50.3128339 44,48.0856542 44,45.487761 C44,40.3409306 46.6554898,37 50.7882079,37 Z M65.0618673,37 C69.284268,37 72,40.3899509 72,45.6364033 C72,50.6100491 69.136108,54 64.9381327,54 C62.7902941,54 60.9876265,53.1339118 59.827093,51.5502169 C58.6418126,49.9420435 58,47.8137019 58,45.4379985 C58,40.4891533 60.9137072,37 65.0618673,37 Z M77.1729635,37 L82.7317048,46.427211 C82.7556154,46.4752947 82.9941,46.9071111 83.2086741,47.3148856 C83.3996481,47.6986184 83.542801,47.986496 83.7334644,48.3464991 L83.7334644,37 L86,37 L86,53 L83.3757375,53 L77.1729635,42.7809695 C77.1012318,42.6613847 76.9580789,42.3494653 76.7435048,41.9176489 C76.6959942,41.7974397 76.5053307,41.4377488 76.3140462,41.0540161 L76.3140462,53 L74,53 L74,37 L77.1729635,37 Z M100,37 L100,39.4706893 L92.9216262,39.4706893 L92.9216262,43.8606666 L98.5036327,43.8606666 L98.5036327,46.2592303 L92.9216262,46.2592303 L92.9216262,53 L90,53 L90,37 L100,37 Z M105,37 L105,53 L102,53 L102,37 L105,37 Z M115.71178,37 L121,53 L117.954411,53 L116.70311,49.1860901 L110.659255,49.1860901 L109.408262,53 L107,53 L112.217542,37 L115.71178,37 Z M126.172653,37 L131.731705,46.427211 C131.755615,46.4752947 131.9941,46.9071111 132.208674,47.3148856 C132.399648,47.6986184 132.542801,47.986496 132.733464,48.3464991 L132.733464,37 L135,37 L135,53 L132.375738,53 L126.172653,42.7809695 C126.101232,42.6613847 125.958079,42.3494653 125.743505,41.9176489 C125.695684,41.7974397 125.50502,41.4377488 125.314046,41.0540161 L125.314046,53 L123,53 L123,37 L126.172653,37 Z M149.756369,37 L149.756369,39.278979 L141.55403,50.5293107 L150,50.5293107 L150,53 L138,53 L138,50.7450628 L146.324313,39.278979 L138.584524,39.278979 L138.584524,37 L149.756369,37 Z M159.71178,37 L165,53 L161.954411,53 L160.70311,49.1860901 L154.659255,49.1860901 L153.408262,53 L151,53 L156.217542,37 L159.71178,37 Z M65.0371204,39.400504 C63.7036799,39.400504 62.6170657,40.0189083 62.0739193,41.1078797 C61.506026,42.1965291 61.2100273,43.7802239 61.2100273,45.5372009 C61.2100273,49.4717986 62.5431464,51.5998181 64.9628796,51.5998181 C66.2718946,51.5998181 67.4816005,50.8326102 68.0494938,49.6943597 C68.5431464,48.7045907 68.7899727,47.3434569 68.7899727,45.6856823 C68.7899727,41.5285235 67.5307729,39.400504 65.0371204,39.400504 Z M113.657521,39.7348372 L111.367567,46.8833815 L115.947782,46.8833815 L113.657521,39.7348372 Z M157.657521,39.7348372 L155.367567,46.8833815 L159.947782,46.8833815 L157.657521,39.7348372 Z" id="Combined-Shape" fill="#051C48"></path>
            </g>
        </g>
    </g>
</svg>